{"title":"Dan Balan - Chica Bomb HD 720p By Haunting Summer","uid":6492930,"size":132225220,"categoryP":"video","categoryS":"music_videos","magnet":"?xt=urn:btih:509f4b64dc553cc7441d01ba8961aea8dee885f7&amp;dn=Dan+Balan+-+Chica+Bomb+HD+720p+By+Haunting+Summer&amp;tr=udp%3A%2F%2Ftracker.openbittorrent.com%3A80&amp;tr=udp%3A%2F%2Fopen.demonii.com%3A1337&amp;tr=udp%3A%2F%2Ftracker.coppersurfer.tk%3A6969&amp;tr=udp%3A%2F%2Fexodus.desync.com%3A6969","seeders":1,"leechers":0,"uploader":"HaUnTiNg.SuMMeR","files":-1,"time":1308951571,"description":"======================= Dan Balan - Chica Bomb HD 720p ===========================\n\nFormat                           : MPEG-4\nFormat profile                   : Base Media\nCodec ID                         : isom\nFile size                        : 126 MiB\nDuration                         : 3mn 34s\nOverall bit rate                 : 4 941 Kbps\n\nVideo\nID                               : 1\nFormat                           : MPEG-4 Visual\nFormat profile                   : Simple@L1\nFormat settings, BVOP            : No\nFormat settings, QPel            : No\nFormat settings, GMC             : No warppoints\nFormat settings, Matrix          : Default (H.263)\nCodec ID                         : 20\nDuration                         : 3mn 34s\nBit rate mode                    : Variable\nBit rate                         : 4 874 Kbps\nWidth                            : 1 280 pixels\nHeight                           : 768 pixels\nDisplay aspect ratio             : 1.667\nFrame rate mode                  : Constant\nFrame rate                       : 29.970 fps\nColor space                      : YUV\nChroma subsampling               : 4:2:0\nBit depth                        : 8 bits\nScan type                        : Progressive\nBits/(Pixel*Frame)               : 0.165\nStream size                      : 124 MiB (99%)\nWriting library                  : Lavc52.37.0\n\nAudio\nID                               : 2\nFormat                           : AAC\nFormat/Info                      : Advanced Audio Codec\nFormat version                   : Version 4\nFormat profile                   : LC\nFormat settings, SBR             : No\nCodec ID                         : 40\nDuration                         : 3mn 33s\nBit rate mode                    : Variable\nBit rate                         : 62.7 Kbps\nChannel(s)                       : 2 channels\nChannel positions                : Front: L R\nSampling rate                    : 44.1 KHz\nStream size                      : 1.60 MiB (1%)\n\n======================= SCREEN SHOTS -========================================\n\n                   &lt;a href=&quot; http://bayimg.com/PAijAAadM&quot; rel=&quot;nofollow&quot; target=&quot;_NEW&quot;&gt; http://bayimg.com/PAijAAadM&lt;/a&gt;\n                   &lt;a href=&quot; http://bayimg.com/PAIJcAADM&quot; rel=&quot;nofollow&quot; target=&quot;_NEW&quot;&gt; http://bayimg.com/PAIJcAADM&lt;/a&gt;\n                   &lt;a href=&quot; http://bayimg.com/PAIjGAADm&quot; rel=&quot;nofollow&quot; target=&quot;_NEW&quot;&gt; http://bayimg.com/PAIjGAADm&lt;/a&gt;\n                   &lt;a href=&quot; http://bayimg.com/PAijhAAdm&quot; rel=&quot;nofollow&quot; target=&quot;_NEW&quot;&gt; http://bayimg.com/PAijhAAdm&lt;/a&gt;\n                   &lt;a href=&quot; http://bayimg.com/pAIjIAaDM&quot; rel=&quot;nofollow&quot; target=&quot;_NEW&quot;&gt; http://bayimg.com/pAIjIAaDM&lt;/a&gt;\n\n============================ FOLLOW ME ON TWEETER AND FACEBOOK =================\n\n           http :///#!/ haunting_summer\n\n  http: // www. facebook. com/ pages/ HaUnTiNgSuMMeR-ToRrEnTs/ 192812490771363\n\n=================================================================================\n\n--------------- PLZ RATE +/- THE QUALITY N COMMENT IF POSSIBLE -----------------\n                    ","torrent":{"xt":"urn:btih:509f4b64dc553cc7441d01ba8961aea8dee885f7","amp;dn":"Dan+Balan+-+Chica+Bomb+HD+720p+By+Haunting+Summer","amp;tr":["udp%3A%2F%2Ftracker.openbittorrent.com%3A80","udp%3A%2F%2Fopen.demonii.com%3A1337","udp%3A%2F%2Ftracker.coppersurfer.tk%3A6969","udp%3A%2F%2Fexodus.desync.com%3A6969"],"infoHash":"509f4b64dc553cc7441d01ba8961aea8dee885f7","infoHashBuffer":{"type":"Buffer","data":[80,159,75,100,220,85,60,199,68,29,1,186,137,97,174,168,222,232,133,247]},"announce":[],"urlList":[]}}